<svg xmlns="http://www.w3.org/2000/svg" width="51" height="89" viewBox="0 0 51 89">
    <g fill="none" fill-rule="nonzero">
        <path fill="#FFF" d="M47.643 62.578c0 4.601-3.845 8.344-8.572 8.344H10.5c-4.726 0-8.571-3.743-8.571-8.344V26.422c0-4.601 3.845-8.344 8.571-8.344h28.571c4.727 0 8.572 3.743 8.572 8.344v36.156zM39.07 77.875v5.147c0 2.75-.898 3-5.69 3.812-.101.011-.23.033-.45.07-1.05.174-4.243.705-8.145.705a49.456 49.456 0 0 1-8.551-.768c-4.94-.942-5.735-1.285-5.735-3.82v-5.146c0-1.734-.154-3.708-1.014-5.366h30.637c-.905 1.727-1.052 3.754-1.052 5.366zM10.5 11.125V5.978c0-2.534.795-2.877 5.735-3.82.06-.007.132-.02.23-.037a49.456 49.456 0 0 1 8.32-.73c3.903 0 7.096.53 8.146.705.22.037.349.059.45.07 4.788.81 5.69 1.055 5.69 3.812v5.147c0 1.612.147 3.64 1.052 5.366H9.486c.86-1.658 1.014-3.632 1.014-5.366zm39.495 26.422c.279 0 .505-.22.505-.492v-7.36a.499.499 0 0 0-.505-.492h-.924v-2.781c0-4.163-2.725-7.727-6.521-9.111-1.499-1.289-2.05-3.4-2.05-6.186V5.978c0-4.028-2.29-4.406-6.934-5.192-.201 0-3.935-.786-8.78-.786-4.845 0-8.68.786-8.781.786-4.643.884-6.934 1.36-6.934 5.192v5.147c0 2.775-.475 4.878-2.001 6.168C3.25 18.665.5 22.241.5 26.422v36.156c0 4.181 2.75 7.757 6.57 9.129 1.526 1.29 2.001 3.393 2.001 6.168v5.147c0 3.832 2.291 4.308 6.934 5.192.1 0 3.936.786 8.78.786 4.846 0 8.58-.786 8.781-.786 4.643-.786 6.934-1.164 6.934-5.192v-5.147c0-2.786.551-4.897 2.05-6.186 3.796-1.384 6.521-4.948 6.521-9.11v-5.563h.715a.705.705 0 0 0 .714-.696v-9.734a.705.705 0 0 0-.714-.695h-.715v-8.344h.924z"/>
        <path stroke="#6EA6FF" d="M39.333 20H10.667C6.709 20 3.5 23.047 3.5 26.806v35.388C3.5 65.954 6.709 69 10.667 69h28.666c3.958 0 7.167-3.047 7.167-6.806V26.806c0-3.76-3.209-6.806-7.167-6.806z"/>
    </g>
</svg>
