<svg xmlns="http://www.w3.org/2000/svg" width="30" height="50" viewBox="0 0 30 50">
    <path fill="#6EA6FF" fill-rule="evenodd" d="M18.484 48.325c-.275 2.234-6.594 2.233-6.867-.001a1.006 1.006 0 0 0-.718-.86c-.913-.273-1.437-1.013-1.454-2.17l-.008-.453a.91.91 0 0 1 .32-.724.883.883 0 0 1 .753-.215c2.63.444 6.45.444 9.08 0a.882.882 0 0 1 .752.215.91.91 0 0 1 .32.724l-.006.455c-.018 1.153-.542 1.895-1.455 2.17a1.005 1.005 0 0 0-.717.859zm-3.58-6.203c-.788 0-1.57-.035-2.3-.101a15.488 15.488 0 0 1-1.934-.289c-.729-.163-1.35-.403-1.814-.721-.452-.313-.756-.701-.873-1.172C5.96 31.609-2.527 29.226.74 18.863a13.529 13.529 0 0 1 1.834-3.7 12.582 12.582 0 0 1 2.81-2.896c1.07-.787 2.24-1.355 3.442-1.64 1.144-.271 2.32-.286 3.468.008.29.074.54.146.789.22l.003.001c.666.193 1.35.393 1.963.393.729 0 1.475-.144 2.198-.282l.01-.003h.002c.398-.076.793-.151 1.215-.21a7.902 7.902 0 0 1 3.431.284c1.158.355 2.253.96 3.24 1.756a12.347 12.347 0 0 1 2.591 2.907 13.43 13.43 0 0 1 1.645 3.649c2.933 10.466-5.408 12.964-7.264 20.489-.085.35-.304.631-.586.805-.284.172-.631.234-.976.146a1.287 1.287 0 0 1-.792-.596 1.324 1.324 0 0 1-.146-.99c1.812-7.347 9.704-10.503 7.284-19.138a10.864 10.864 0 0 0-1.31-2.918h-.001a9.731 9.731 0 0 0-2.048-2.306c-.72-.58-1.508-1.023-2.331-1.283a5.414 5.414 0 0 0-2.394-.216c-.329.046-.702.118-1.081.19l-.015.003-.001.001h-.002l-.002.001c-.851.163-1.732.331-2.667.331-.483 0-.945-.063-1.391-.158-.444-.094-.865-.217-1.281-.338l-.011-.003h-.001a25.135 25.135 0 0 0-.695-.196c-.762-.195-1.556-.175-2.34.023-.836.21-1.663.622-2.435 1.189a10.053 10.053 0 0 0-2.238 2.31c-.624.889-1.13 1.892-1.467 2.965-2.206 7.002 2.745 10.09 5.725 15.564.652 1.199 1.2 2.483 1.567 3.979l.006.02v-.033c-.003-.04-.008-.096.005-.096.154.006.402.014.73.088.358.08.766.146 1.213.197.404.047.837.081 1.284.102v-8.063a3.724 3.724 0 0 1-.691-.337 3.717 3.717 0 0 1-.582-.444l-.007.006-.125-.128a3.91 3.91 0 0 1 0-5.468l.004-.005.003-.004a3.832 3.832 0 0 1 1.238-.838 3.736 3.736 0 0 1 2.906 0 3.794 3.794 0 0 1 1.279.884c.014.015.027.03.038.045a3.902 3.902 0 0 1 1.038 2.649 3.91 3.91 0 0 1-1.117 2.737 3.8 3.8 0 0 1-1.405.905v9.396c0 .36-.144.688-.377.926a1.28 1.28 0 0 1-.912.384l-.057-.002-.05-.003zm.976-15.227a1.233 1.233 0 0 0-.87-.366 1.22 1.22 0 0 0-.87.361l-.004.003-.001.002a1.265 1.265 0 0 0-.356.884 1.244 1.244 0 0 0 .36.884l.067.068a1.237 1.237 0 0 0 1.274.204 1.245 1.245 0 0 0 .76-1.156 1.249 1.249 0 0 0-.316-.841l-.017-.018-.002-.001-.022-.021-.003-.003zM14.796 9.126l.25.007a6.63 6.63 0 0 0 5.456-2.768 6.854 6.854 0 0 0 .96-6.119l-.08-.238-.25-.008a6.632 6.632 0 0 0-5.457 2.77 6.856 6.856 0 0 0-.96 6.118l.081.238z"/>
</svg>
