<svg xmlns="http://www.w3.org/2000/svg" width="68" height="78" viewBox="0 0 68 78">
    <g fill="none" fill-rule="evenodd">
        <g transform="translate(-.114)">
            <circle cx="21.069" cy="70.536" r="2.852" stroke="#6EA6FF"/>
            <circle cx="14.684" cy="5.755" r="1" fill="#6EA6FF" stroke="#6EA6FF"/>
            <path fill="#6EA6FF" stroke="#6EA6FF" stroke-linecap="round" stroke-linejoin="round" d="M17.736 5.755h9.953"/>
            <path stroke="#FFF" stroke-linecap="square" d="M2.5 9.435h38.014M2.5 64.368h38.014"/>
            <rect width="39.259" height="74.529" x="1.44" y="1.793" stroke="#6EA6FF" stroke-width="2" rx="5"/>
        </g>
        <g transform="rotate(90 30.639 37.639)">
            <path stroke="#6EA6FF" stroke-width="2" d="M2.171 10.607a1 1 0 0 0 0 1.387l8.67 9.004a1 1 0 0 0 .721.306h21.182a1 1 0 0 0 1-1V2.297a1 1 0 0 0-1-1H11.562a1 1 0 0 0-.72.306L2.17 10.607z"/>
            <g stroke="#FFF" stroke-linecap="round">
                <path d="M17.29 14.046c-2.102-1.32-2.102-5.054.622-5.054 2.309 0 3.105 6.78 7.665 5.054 1.863-.705 2.29-5.054-.795-6.548M20.502 15.49V7.499M22.683 15.49V7.499"/>
            </g>
            <circle cx="9.457" cy="11" r="2" stroke="#6EA6FF"/>
        </g>
        <path stroke="#FFF" d="M40.176 3.403l11.237-.006a6 6 0 0 1 6.003 5.957l.05 6.92"/>
    </g>
</svg>
