<svg xmlns="http://www.w3.org/2000/svg" width="114" height="78" viewBox="0 0 114 78">
    <g fill="none" fill-rule="evenodd">
        <g transform="translate(.53)">
            <circle cx="21.069" cy="70.536" r="2.852" stroke="#6EA6FF"/>
            <circle cx="14.684" cy="5.755" r="1" fill="#6EA6FF" stroke="#6EA6FF"/>
            <path fill="#6EA6FF" stroke="#6EA6FF" stroke-linecap="round" stroke-linejoin="round" d="M17.736 5.755h9.953"/>
            <path stroke="#FFF" stroke-linecap="square" d="M2.5 9.435h38.014M2.5 64.368h38.014"/>
            <rect width="39.259" height="74.529" x="1.44" y="1.793" stroke="#6EA6FF" stroke-width="2" rx="5"/>
        </g>
        <g stroke-width="2" transform="translate(81.627 23.5)">
            <circle cx="15.483" cy="15.24" r="15.17" stroke="#6EA6FF"/>
            <circle cx="15.483" cy="15.24" r="11.723" stroke="#6EA6FF"/>
            <path stroke="#FFF" stroke-linecap="round" d="M11.34 9.71c1.884-2.82 7.216-2.82 7.216.835 0 3.099-9.682 4.167-7.217 10.287 1.007 2.5 7.217 3.072 9.35-1.067M9.277 14.02H20.69M9.277 16.948H20.69"/>
        </g>
        <g stroke="#FFF" stroke-linecap="round" stroke-linejoin="round" stroke-width="2">
            <path d="M69.272 41.8H55.481M69.272 36.257H55.481"/>
        </g>
    </g>
</svg>
