<svg xmlns="http://www.w3.org/2000/svg" width="196" height="171" viewBox="0 0 196 171">
    <g fill="none" fill-rule="nonzero">
        <path fill="#FFF" d="M186.36 0H9.64C4.614 0 .5 4.122.5 9.16v122.144c0 5.038 4.113 9.16 9.14 9.16H79.72c0 2.625-1.356 13.868-6.808 24.429h-8.427v2.366c0 2.058 1.68 3.741 3.731 3.741h59.57c2.052 0 3.73-1.683 3.73-3.74v-2.367h-8.426c-5.452-10.56-6.808-21.804-6.808-24.429h70.078c5.028 0 9.141-4.122 9.141-9.16V9.16c0-5.039-4.113-9.161-9.14-9.161zm-56.368 166.42v.84c0 1.22-.99 2.213-2.207 2.213h-59.57a2.213 2.213 0 0 1-2.207-2.214v-.84h63.984zm-8.618-1.527h-46.75c5.282-10.517 6.618-21.766 6.618-24.429h33.516c0 2.663 1.336 13.915 6.616 24.429zm71.08-33.59c0 3.369-2.734 6.108-6.095 6.108H9.641c-3.361 0-6.094-2.74-6.094-6.107v-16.795h188.906v16.795zm0-18.32H3.546V9.16c0-3.368 2.733-6.107 6.094-6.107h176.718c3.361 0 6.094 2.739 6.094 6.107v103.821z"/>
        <path fill="#6EA6FF" d="M180.397 9H15.603C12.233 9 9.5 11.742 9.5 15.125v85.75c0 3.383 2.733 6.125 6.103 6.125h164.794c3.37 0 6.103-2.742 6.103-6.125v-85.75c0-3.383-2.733-6.125-6.103-6.125zm4.577 91.875c0 2.533-2.054 4.594-4.577 4.594H15.603c-2.523 0-4.577-2.061-4.577-4.594v-85.75c0-2.533 2.054-4.594 4.577-4.594h164.794c2.523 0 4.577 2.061 4.577 4.594v85.75z"/>
    </g>
</svg>
