<svg xmlns="http://www.w3.org/2000/svg" width="86" height="128" viewBox="0 0 86 128">
    <g fill="none" fill-rule="evenodd">
        <path fill="#FFF" fill-rule="nonzero" d="M85.5 19v-2c0-.55-.45-1-1-1V8c0-4.4-3.6-8-8-8h-68c-4.4 0-8 3.6-8 8v112c0 4.4 3.6 8 8 8h68c4.4 0 8-3.6 8-8V36c.55 0 1-.45 1-1V25c0-.55-.45-1-1-1v-4c.55 0 1-.45 1-1zm-3 101c0 3.308-2.692 6-6 6h-68c-3.308 0-6-2.692-6-6V8c0-3.308 2.692-6 6-6h68c3.308 0 6 2.692 6 6v112z"/>
        <circle cx="42.5" cy="7" r="1" fill="#FFF"/>
        <path fill="#FFF" fill-rule="nonzero" d="M42.5 116a4 4 0 1 0 0 8 4 4 0 0 0 0-8zm0 7c-1.654 0-3-1.346-3-3s1.346-3 3-3 3 1.346 3 3-1.346 3-3 3z"/>
        <path fill="#6EA6FF" fill-rule="nonzero" d="M76.5 12h-68a4 4 0 0 0-4 4v94a4 4 0 0 0 4 4h68a4 4 0 0 0 4-4V16a4 4 0 0 0-4-4zm3 98c0 1.654-1.346 3-3 3h-68c-1.654 0-3-1.346-3-3V16c0-1.654 1.346-3 3-3h68c1.654 0 3 1.346 3 3v94z"/>
    </g>
</svg>
