<svg xmlns="http://www.w3.org/2000/svg" width="50" height="97" viewBox="0 0 50 97">
    <g fill="none" fill-rule="evenodd">
        <path fill="#FFF" fill-rule="nonzero" d="M49.242 19.703V6.063c0-3.335-2.727-6.063-6.06-6.063H6.818C3.485 0 .758 2.728.758 6.063v6.062a.76.76 0 0 0-.758.758v1.515c0 .417.34.758.758.758v4.547a.76.76 0 0 0-.758.758v4.547c0 .417.34.758.758.758v1.515A.76.76 0 0 0 0 28.04v4.547c0 .417.34.758.758.758v57.593C.758 94.272 3.485 97 6.818 97h36.364c3.333 0 6.06-2.728 6.06-6.063V27.282a.76.76 0 0 0 .758-.758v-6.062a.76.76 0 0 0-.758-.758zm-1.515 71.234a4.552 4.552 0 0 1-4.545 4.547H6.818a4.552 4.552 0 0 1-4.545-4.546V6.061a4.552 4.552 0 0 1 4.545-4.546h36.364a4.552 4.552 0 0 1 4.545 4.546v84.876z"/>
        <circle cx="17.5" cy="6.5" r="1" fill="#FFF"/>
        <path fill="#FFF" d="M19.375 7h11.25c.206 0 .375-.225.375-.5s-.169-.5-.375-.5h-11.25c-.206 0-.375.225-.375.5s.169.5.375.5z"/>
        <path fill="#FFF" fill-rule="nonzero" d="M26 87a3 3 0 1 0 0 6 3 3 0 0 0 0-6zm0 5.25c-1.24 0-2.25-1.01-2.25-2.25s1.01-2.25 2.25-2.25 2.25 1.01 2.25 2.25-1.01 2.25-2.25 2.25z"/>
        <path fill="#6EA6FF" fill-rule="nonzero" d="M43.944 12H7.056C5.368 12 4 13.35 4 15.015v68.97C4 85.65 5.368 87 7.056 87h36.888C45.632 87 47 85.65 47 83.985v-68.97C47 13.35 45.632 12 43.944 12zm2.288 71.985c0 1.245-1.026 2.257-2.288 2.257H7.056c-1.262 0-2.288-1.012-2.288-2.257v-68.97c0-1.245 1.026-2.257 2.288-2.257h36.888c1.262 0 2.288 1.012 2.288 2.257v68.97z"/>
    </g>
</svg>
