<?xml version="1.0" encoding="utf-8"?>
<!-- Generator: Adobe Illustrator 24.1.2, SVG Export Plug-In . SVG Version: 6.00 Build 0)  -->
<svg version="1.1" id="Слой_1" xmlns="http://www.w3.org/2000/svg" xmlns:xlink="http://www.w3.org/1999/xlink" x="0px" y="0px"
	 viewBox="0 0 210 53" style="enable-background:new 0 0 210 53;" xml:space="preserve">
<style type="text/css">
	.st0{filter:url(#Adobe_OpacityMaskFilter);}
	.st1{fill-rule:evenodd;clip-rule:evenodd;fill:#FFFFFF;}
	.st2{mask:url(#c_1_);fill-rule:evenodd;clip-rule:evenodd;fill:url(#SVGID_1_);}
	.st3{filter:url(#Adobe_OpacityMaskFilter_1_);}
	.st4{mask:url(#f_1_);fill-rule:evenodd;clip-rule:evenodd;fill:url(#SVGID_2_);}
	.st5{fill:#FFFFFF;}
</style>
<g>
	<g transform="translate(-.36)">
		<defs>
			<filter id="Adobe_OpacityMaskFilter" filterUnits="userSpaceOnUse" x="0.5" y="0.4" width="32.3" height="52.6">
				<feColorMatrix  type="matrix" values="1 0 0 0 0  0 1 0 0 0  0 0 1 0 0  0 0 0 1 0"/>
			</filter>
		</defs>
		<mask maskUnits="userSpaceOnUse" x="0.5" y="0.4" width="32.3" height="52.6" id="c_1_">
			<g class="st0">
				<path id="a_1_" class="st1" d="M17.4,3.3c-1.4,1.8-1.8,4.2-1,6.4l0.1,0.3l0.3,0c2.3,0,4.5-1.1,5.9-2.9c1.4-1.8,1.8-4.2,1-6.4
					l-0.1-0.3l-0.3,0l-0.1,0C20.9,0.4,18.7,1.5,17.4,3.3L17.4,3.3z M10,11.6c-1.3,0.3-2.6,0.9-3.7,1.7c-1.2,0.8-2.2,1.9-3,3
					c-0.9,1.2-1.5,2.5-2,3.9c-3.5,10.9,5.6,13.4,7.8,22c0.1,0.5,0.5,0.9,0.9,1.2c0.5,0.3,1.2,0.6,2,0.8c0.6,0.1,1.3,0.2,2.1,0.3
					c0.8,0.1,1.6,0.1,2.5,0.1l0.1,0l0.1,0c0.4,0,0.7-0.2,1-0.4v0c0.3-0.3,0.4-0.6,0.4-1v-9.9c1.1-0.4,2-1.2,2.4-2.3
					c0.6-1.5,0.3-3.2-0.8-4.3l0,0c0,0,0,0,0,0v0c-1.6-1.6-4.2-1.6-5.8,0l0,0l0,0c-0.4,0.4-0.7,0.8-0.9,1.3c-0.4,1-0.4,2.1,0,3.1
					c0.2,0.5,0.5,0.9,0.9,1.3l0.1,0.1l0,0c0.4,0.4,0.9,0.6,1.4,0.8v8.5c-0.5,0-0.9-0.1-1.4-0.1c-0.5-0.1-0.9-0.1-1.3-0.2
					c-0.4-0.1-0.6-0.1-0.8-0.1c0,0,0,0.1,0,0.1c0,0,0,0.1,0,0l0,0c-0.4-1.6-1-2.9-1.7-4.2c-3.2-5.8-8.5-9-6.2-16.4
					C4.3,20,4.8,18.9,5.5,18C6.2,17,7,16.2,7.9,15.5c0.8-0.6,1.7-1,2.6-1.3c0.8-0.2,1.7-0.2,2.5,0c0.2,0.1,0.5,0.1,0.8,0.2l0,0l0,0
					c0.4,0.1,0.9,0.3,1.4,0.4c0.5,0.1,1,0.2,1.5,0.2c1,0,2-0.2,2.9-0.4h0l0,0l0,0c0.4-0.1,0.8-0.1,1.2-0.2c0.9-0.1,1.7,0,2.6,0.2
					c0.9,0.3,1.7,0.7,2.5,1.3c0.8,0.7,1.6,1.5,2.2,2.4c0.6,0.9,1.1,2,1.4,3.1c2.6,9.1-5.9,12.4-7.8,20.1c-0.2,0.7,0.3,1.5,1,1.7
					c0.7,0.2,1.5-0.3,1.7-1c2-7.9,11-10.5,7.8-21.5c-0.4-1.4-1-2.7-1.8-3.8c-0.8-1.2-1.7-2.2-2.8-3.1c-1.1-0.8-2.2-1.5-3.5-1.8
					c-1.2-0.4-2.5-0.5-3.7-0.3c-0.5,0.1-0.9,0.1-1.3,0.2l0,0c-0.8,0.1-1.6,0.3-2.4,0.3c-0.7,0-1.4-0.2-2.1-0.4l0,0
					c-0.3-0.1-0.5-0.2-0.8-0.2c-0.6-0.2-1.2-0.2-1.9-0.2C11.2,11.4,10.6,11.4,10,11.6z M15.8,30.6L15.8,30.6c-0.3-0.3-0.5-0.7-0.5-1
					c0-0.3,0.1-0.7,0.4-0.9l0,0l0,0c0.1-0.1,0.3-0.2,0.4-0.3c0.3-0.1,0.7-0.1,1,0c0.2,0.1,0.3,0.2,0.4,0.3l0,0l0,0l0,0l0,0
					c0.2,0.2,0.3,0.6,0.3,0.9c0,0.3-0.1,0.7-0.4,0.9c-0.2,0.2-0.6,0.4-0.9,0.4c-0.2,0-0.4,0-0.5-0.1C16,30.8,15.9,30.7,15.8,30.6z
					 M11,46.8c-0.2,0.2-0.4,0.5-0.3,0.8l0,0.5c0,1.2,0.6,2,1.6,2.3c0.4,0.1,0.7,0.5,0.8,0.9c0.3,2.3,7.1,2.3,7.4,0
					c0.1-0.4,0.3-0.8,0.8-0.9c1-0.3,1.5-1.1,1.6-2.3l0-0.5c0-0.3-0.1-0.6-0.3-0.8c-0.2-0.2-0.5-0.3-0.8-0.2c-2.8,0.5-6.9,0.5-9.8,0
					C11.5,46.5,11.2,46.6,11,46.8L11,46.8z"/>
			</g>
		</mask>
		
			<linearGradient id="SVGID_1_" gradientUnits="userSpaceOnUse" x1="-826.7054" y1="556.1802" x2="-826.7054" y2="557.1709" gradientTransform="matrix(32.3061 0 0 -52.5533 26724.2734 29285.1152)">
			<stop  offset="0" style="stop-color:#6DA5FF"/>
			<stop  offset="1" style="stop-color:#00FEC5"/>
		</linearGradient>
		<path class="st2" d="M17.4,3.3c-1.4,1.8-1.8,4.2-1,6.4l0.1,0.3l0.3,0c2.3,0,4.5-1.1,5.9-2.9c1.4-1.8,1.8-4.2,1-6.4l-0.1-0.3
			l-0.3,0l-0.1,0C20.9,0.4,18.7,1.5,17.4,3.3L17.4,3.3z M10,11.6c-1.3,0.3-2.6,0.9-3.7,1.7c-1.2,0.8-2.2,1.9-3,3
			c-0.9,1.2-1.5,2.5-2,3.9c-3.5,10.9,5.6,13.4,7.8,22c0.1,0.5,0.5,0.9,0.9,1.2c0.5,0.3,1.2,0.6,2,0.8c0.6,0.1,1.3,0.2,2.1,0.3
			c0.8,0.1,1.6,0.1,2.5,0.1l0.1,0l0.1,0c0.4,0,0.7-0.2,1-0.4v0c0.3-0.3,0.4-0.6,0.4-1v-9.9c1.1-0.4,2-1.2,2.4-2.3
			c0.6-1.5,0.3-3.2-0.8-4.3l0,0c0,0,0,0,0,0v0c-1.6-1.6-4.2-1.6-5.8,0l0,0l0,0c-0.4,0.4-0.7,0.8-0.9,1.3c-0.4,1-0.4,2.1,0,3.1
			c0.2,0.5,0.5,0.9,0.9,1.3l0.1,0.1l0,0c0.4,0.4,0.9,0.6,1.4,0.8v8.5c-0.5,0-0.9-0.1-1.4-0.1c-0.5-0.1-0.9-0.1-1.3-0.2
			c-0.4-0.1-0.6-0.1-0.8-0.1c0,0,0,0.1,0,0.1c0,0,0,0.1,0,0l0,0c-0.4-1.6-1-2.9-1.7-4.2c-3.2-5.8-8.5-9-6.2-16.4
			C4.3,20,4.8,18.9,5.5,18C6.2,17,7,16.2,7.9,15.5c0.8-0.6,1.7-1,2.6-1.3c0.8-0.2,1.7-0.2,2.5,0c0.2,0.1,0.5,0.1,0.8,0.2l0,0l0,0
			c0.4,0.1,0.9,0.3,1.4,0.4c0.5,0.1,1,0.2,1.5,0.2c1,0,2-0.2,2.9-0.4h0l0,0l0,0c0.4-0.1,0.8-0.1,1.2-0.2c0.9-0.1,1.7,0,2.6,0.2
			c0.9,0.3,1.7,0.7,2.5,1.3c0.8,0.7,1.6,1.5,2.2,2.4c0.6,0.9,1.1,2,1.4,3.1c2.6,9.1-5.9,12.4-7.8,20.1c-0.2,0.7,0.3,1.5,1,1.7
			c0.7,0.2,1.5-0.3,1.7-1c2-7.9,11-10.5,7.8-21.5c-0.4-1.4-1-2.7-1.8-3.8c-0.8-1.2-1.7-2.2-2.8-3.1c-1.1-0.8-2.2-1.5-3.5-1.8
			c-1.2-0.4-2.5-0.5-3.7-0.3c-0.5,0.1-0.9,0.1-1.3,0.2l0,0c-0.8,0.1-1.6,0.3-2.4,0.3c-0.7,0-1.4-0.2-2.1-0.4l0,0
			c-0.3-0.1-0.5-0.2-0.8-0.2c-0.6-0.2-1.2-0.2-1.9-0.2C11.2,11.4,10.6,11.4,10,11.6z M15.8,30.6L15.8,30.6c-0.3-0.3-0.5-0.7-0.5-1
			c0-0.3,0.1-0.7,0.4-0.9l0,0l0,0c0.1-0.1,0.3-0.2,0.4-0.3c0.3-0.1,0.7-0.1,1,0c0.2,0.1,0.3,0.2,0.4,0.3l0,0l0,0l0,0l0,0
			c0.2,0.2,0.3,0.6,0.3,0.9c0,0.3-0.1,0.7-0.4,0.9c-0.2,0.2-0.6,0.4-0.9,0.4c-0.2,0-0.4,0-0.5-0.1C16,30.8,15.9,30.7,15.8,30.6z
			 M11,46.8c-0.2,0.2-0.4,0.5-0.3,0.8l0,0.5c0,1.2,0.6,2,1.6,2.3c0.4,0.1,0.7,0.5,0.8,0.9c0.3,2.3,7.1,2.3,7.4,0
			c0.1-0.4,0.3-0.8,0.8-0.9c1-0.3,1.5-1.1,1.6-2.3l0-0.5c0-0.3-0.1-0.6-0.3-0.8c-0.2-0.2-0.5-0.3-0.8-0.2c-2.8,0.5-6.9,0.5-9.8,0
			C11.5,46.5,11.2,46.6,11,46.8L11,46.8z"/>
	</g>
	<g>
		<path class="st1" d="M124.8,22.4l-0.1-5.7c0-0.2,0.1-0.4,0.2-0.5c0.1-0.1,0.3-0.2,0.5-0.2h4.3c0.6,0,0.9,0.6,0.6,1h0l-4.2,5.8
			c-0.2,0.2-0.5,0.4-0.8,0.3C125.1,22.9,124.8,22.7,124.8,22.4z M41.5,38c-0.2,0-0.4-0.1-0.5-0.2c-0.1-0.1-0.2-0.3-0.2-0.5V16.7
			c0-0.2,0.1-0.4,0.2-0.6c0.1-0.1,0.3-0.2,0.5-0.2h7.7c6.2,0,9.4,2.9,9.5,8.6c0,1.2,0.1,2,0.1,2.5c0,0.4,0,1.2-0.1,2.4
			c-0.1,2.9-0.9,5.1-2.4,6.5c-1.5,1.4-3.8,2.1-6.9,2.1H41.5L41.5,38z M49.2,34.3c1.7,0,3-0.4,3.8-1.2c0.8-0.8,1.2-2.1,1.2-3.9
			c0-1.3,0.1-2,0.1-2.4c0-0.8,0-1.6-0.1-2.3c0-1.7-0.5-3-1.3-3.8s-2.1-1.2-3.9-1.2h-3.8v14.7H49.2z M63.7,38c-0.2,0-0.4-0.1-0.5-0.2
			c-0.1-0.1-0.2-0.3-0.2-0.5V16.7c0-0.2,0.1-0.4,0.2-0.6c0.1-0.1,0.3-0.2,0.6-0.2h13.9c0.2,0,0.4,0.1,0.6,0.2
			c0.1,0.1,0.2,0.3,0.2,0.6v2.1c0,0.2-0.1,0.4-0.2,0.6c-0.2,0.1-0.4,0.2-0.6,0.2H67.3v5.5h9.6c0.2,0,0.4,0.1,0.6,0.2
			c0.1,0.1,0.2,0.3,0.2,0.6v2c0,0.2-0.1,0.4-0.2,0.6c-0.2,0.1-0.4,0.2-0.6,0.2h-9.6v5.7h10.6c0.2,0,0.4,0.1,0.6,0.2
			c0.1,0.1,0.2,0.3,0.2,0.6v2.1c0,0.2-0.1,0.4-0.2,0.6c-0.2,0.1-0.4,0.2-0.6,0.2L63.7,38L63.7,38z M83.3,38c-0.2,0-0.4-0.1-0.5-0.2
			c-0.1-0.1-0.2-0.3-0.2-0.5V16.7c0-0.2,0.1-0.4,0.2-0.6c0.1-0.1,0.3-0.2,0.6-0.2h2.5c0.4,0,0.7,0.2,0.9,0.5l9,14V16.7
			c0-0.2,0.1-0.4,0.2-0.6c0.1-0.1,0.3-0.2,0.6-0.2h2.7c0.2,0,0.4,0.1,0.6,0.2c0.1,0.1,0.2,0.3,0.2,0.6v20.5c0,0.2-0.1,0.4-0.2,0.6
			c-0.1,0.1-0.3,0.2-0.5,0.2h-2.5c-0.4,0-0.7-0.2-0.9-0.5l-9-13.7v13.4c0,0.2-0.1,0.4-0.2,0.5C86.5,37.9,86.3,38,86,38L83.3,38
			L83.3,38z M111.4,38c-0.2,0-0.4-0.1-0.5-0.2c-0.1-0.1-0.2-0.3-0.2-0.5v-7.1l-7.5-13.2c0-0.1-0.1-0.2-0.1-0.3
			c0-0.2,0.1-0.3,0.2-0.5c0.1-0.1,0.3-0.2,0.5-0.2h2.8c0.4,0,0.7,0.2,1,0.6l5.3,9.1l5.3-9.1c0.1-0.1,0.2-0.3,0.4-0.4
			c0.2-0.1,0.4-0.2,0.6-0.2h2.8c0.2,0,0.3,0.1,0.5,0.2c0.1,0.1,0.2,0.3,0.2,0.5c0,0.1,0,0.2-0.1,0.3l-7.4,13.2v7.1
			c0,0.2-0.1,0.4-0.2,0.6c-0.2,0.1-0.4,0.2-0.6,0.2H111.4L111.4,38z M138.9,38.3c-1.9,0-3.5-0.3-4.9-0.8c-1.3-0.6-2.4-1.3-3.1-2.2
			c-0.7-0.9-1.1-1.9-1.1-3c0-0.2,0.1-0.3,0.2-0.5c0.1-0.1,0.3-0.2,0.5-0.2h2.9c0.2,0,0.4,0,0.6,0.2c0.1,0.1,0.3,0.3,0.4,0.4
			c0.2,0.7,0.7,1.3,1.4,1.8s1.8,0.7,3.1,0.7c1.5,0,2.6-0.2,3.3-0.7c0.7-0.5,1.1-1.2,1.1-2c0-0.6-0.2-1-0.6-1.4c-0.4-0.4-1-0.7-1.7-1
			c-0.8-0.3-1.9-0.6-3.4-1c-2.5-0.6-4.3-1.4-5.5-2.3c-1.2-1-1.7-2.4-1.7-4.2c0-1.2,0.3-2.3,1-3.3c0.7-1,1.6-1.7,2.9-2.3
			c1.2-0.5,2.7-0.8,4.4-0.8c1.7,0,3.3,0.3,4.5,0.9s2.2,1.4,2.9,2.3c0.7,0.9,1,1.8,1.1,2.7c0,0.2-0.1,0.3-0.2,0.5
			c-0.1,0.1-0.3,0.2-0.5,0.2h-3c-0.5,0-0.8-0.2-0.9-0.6c-0.1-0.7-0.5-1.2-1.2-1.7c-0.7-0.5-1.6-0.7-2.6-0.7c-1.2,0-2.1,0.2-2.7,0.7
			c-0.7,0.4-1,1.1-1,1.9c0,0.6,0.2,1,0.5,1.4c0.3,0.4,0.9,0.7,1.6,1c0.7,0.3,1.8,0.6,3.1,1c1.9,0.4,3.4,0.9,4.5,1.4
			c1.1,0.5,1.9,1.2,2.4,2c0.5,0.8,0.8,1.8,0.8,3.1c0,1.4-0.4,2.5-1.1,3.5c-0.7,1-1.8,1.8-3.1,2.3C142.2,38,140.7,38.3,138.9,38.3
			L138.9,38.3z"/>
	</g>
	<g transform="translate(153.533 16.06)">
		<defs>
			<filter id="Adobe_OpacityMaskFilter_1_" filterUnits="userSpaceOnUse" x="0.4" y="0.1" width="55.5" height="22">
				<feColorMatrix  type="matrix" values="1 0 0 0 0  0 1 0 0 0  0 0 1 0 0  0 0 0 1 0"/>
			</filter>
		</defs>
		<mask maskUnits="userSpaceOnUse" x="0.4" y="0.1" width="55.5" height="22" id="f_1_">
			<g class="st3">
				<path id="d_1_" class="st1" d="M38.8,0.1c-0.2,0-0.4,0.1-0.6,0.2C38.1,0.4,38,0.6,38,0.9v20.5c0,0.2,0.1,0.4,0.2,0.5
					c0.2,0.1,0.3,0.2,0.5,0.2h9.5c2.4,0,4.3-0.6,5.6-1.8c1.3-1.2,2-2.8,2-4.7c0-1.2-0.3-2.2-0.9-3.1c-0.6-0.9-1.4-1.6-2.3-2
					c0.7-0.3,1.4-0.9,1.9-1.7c0.5-0.8,0.8-1.7,0.8-2.8c0-1.9-0.6-3.3-1.8-4.4c-1.2-1.1-3.1-1.6-5.6-1.6L38.8,0.1L38.8,0.1z
					 M42.5,3.4h4.9c1.1,0,1.9,0.2,2.5,0.7c0.6,0.5,0.9,1.2,0.9,2S50.6,7.8,50,8.3c-0.6,0.5-1.4,0.8-2.5,0.8h-4.9
					C42.5,9.1,42.5,3.4,42.5,3.4z M42.5,12.4h5.3c1.1,0,1.9,0.3,2.6,0.9c0.6,0.6,0.9,1.4,0.9,2.3c0,0.9-0.3,1.7-0.9,2.3
					c-0.6,0.6-1.5,0.9-2.6,0.9h-5.3C42.5,18.7,42.5,12.4,42.5,12.4z M23.7,0.1c-0.6,0-0.9,0.3-1.1,0.8l-7.7,20.3l-0.1,0.3
					c0,0.2,0.1,0.3,0.2,0.5c0.1,0.1,0.3,0.2,0.5,0.2h2.8c0.4,0,0.8-0.2,0.9-0.6l1.5-3.8h9.4l1.5,3.8c0.2,0.4,0.5,0.6,0.9,0.6h2.8
					c0.2,0,0.3-0.1,0.5-0.2c0.1-0.1,0.2-0.3,0.2-0.5l-0.1-0.3L28.4,0.9c-0.2-0.5-0.6-0.8-1.1-0.8H23.7L23.7,0.1z M25.5,4.4l3.6,9.7
					h-7.2L25.5,4.4L25.5,4.4z M1.2,0.1C1,0.1,0.8,0.1,0.6,0.3C0.5,0.4,0.4,0.6,0.4,0.8v20.5c0,0.2,0.1,0.4,0.2,0.5
					C0.8,22,1,22.1,1.2,22.1h11.4c0.2,0,0.4-0.1,0.6-0.2c0.1-0.1,0.2-0.3,0.2-0.5v-2.3c0-0.2-0.1-0.4-0.2-0.5
					c-0.2-0.1-0.4-0.2-0.6-0.2H4.9V0.8c0-0.2-0.1-0.4-0.2-0.6C4.6,0.1,4.4,0.1,4.2,0.1L1.2,0.1L1.2,0.1z"/>
			</g>
		</mask>
		
			<linearGradient id="SVGID_2_" gradientUnits="userSpaceOnUse" x1="-991.6561" y1="526.605" x2="-991.6561" y2="527.5958" gradientTransform="matrix(55.538 0 0 -22.0392 55102.7813 11629.3467)">
			<stop  offset="0" style="stop-color:#6DA5FF"/>
			<stop  offset="1" style="stop-color:#00FEC5"/>
		</linearGradient>
		<path class="st4" d="M38.8,0.1c-0.2,0-0.4,0.1-0.6,0.2C38.1,0.4,38,0.6,38,0.9v20.5c0,0.2,0.1,0.4,0.2,0.5
			c0.2,0.1,0.3,0.2,0.5,0.2h9.5c2.4,0,4.3-0.6,5.6-1.8c1.3-1.2,2-2.8,2-4.7c0-1.2-0.3-2.2-0.9-3.1c-0.6-0.9-1.4-1.6-2.3-2
			c0.7-0.3,1.4-0.9,1.9-1.7c0.5-0.8,0.8-1.7,0.8-2.8c0-1.9-0.6-3.3-1.8-4.4c-1.2-1.1-3.1-1.6-5.6-1.6L38.8,0.1L38.8,0.1z M42.5,3.4
			h4.9c1.1,0,1.9,0.2,2.5,0.7c0.6,0.5,0.9,1.2,0.9,2S50.6,7.8,50,8.3c-0.6,0.5-1.4,0.8-2.5,0.8h-4.9C42.5,9.1,42.5,3.4,42.5,3.4z
			 M42.5,12.4h5.3c1.1,0,1.9,0.3,2.6,0.9c0.6,0.6,0.9,1.4,0.9,2.3c0,0.9-0.3,1.7-0.9,2.3c-0.6,0.6-1.5,0.9-2.6,0.9h-5.3
			C42.5,18.7,42.5,12.4,42.5,12.4z M23.7,0.1c-0.6,0-0.9,0.3-1.1,0.8l-7.7,20.3l-0.1,0.3c0,0.2,0.1,0.3,0.2,0.5
			c0.1,0.1,0.3,0.2,0.5,0.2h2.8c0.4,0,0.8-0.2,0.9-0.6l1.5-3.8h9.4l1.5,3.8c0.2,0.4,0.5,0.6,0.9,0.6h2.8c0.2,0,0.3-0.1,0.5-0.2
			c0.1-0.1,0.2-0.3,0.2-0.5l-0.1-0.3L28.4,0.9c-0.2-0.5-0.6-0.8-1.1-0.8H23.7L23.7,0.1z M25.5,4.4l3.6,9.7h-7.2L25.5,4.4L25.5,4.4z
			 M1.2,0.1C1,0.1,0.8,0.1,0.6,0.3C0.5,0.4,0.4,0.6,0.4,0.8v20.5c0,0.2,0.1,0.4,0.2,0.5C0.8,22,1,22.1,1.2,22.1h11.4
			c0.2,0,0.4-0.1,0.6-0.2c0.1-0.1,0.2-0.3,0.2-0.5v-2.3c0-0.2-0.1-0.4-0.2-0.5c-0.2-0.1-0.4-0.2-0.6-0.2H4.9V0.8
			c0-0.2-0.1-0.4-0.2-0.6C4.6,0.1,4.4,0.1,4.2,0.1L1.2,0.1L1.2,0.1z"/>
	</g>
</g>
<g>
	<path class="st5" d="M43.7,44.6c0.6,0,1.1,0.2,1.4,0.6s0.5,1,0.5,1.7s-0.2,1.3-0.5,1.7c-0.4,0.4-0.8,0.6-1.4,0.6
		c-0.3,0-0.6-0.1-0.9-0.2c-0.3-0.2-0.4-0.4-0.6-0.6h0v2.3h-0.9v-6.2h0.9v0.8h0c0.1-0.3,0.3-0.5,0.6-0.6S43.4,44.6,43.7,44.6z
		 M43.5,48.5c0.4,0,0.7-0.1,0.9-0.4c0.2-0.3,0.3-0.7,0.3-1.2c0-0.5-0.1-0.9-0.3-1.2s-0.5-0.4-0.9-0.4c-0.4,0-0.7,0.1-0.9,0.4
		s-0.3,0.7-0.3,1.2c0,0.5,0.1,0.9,0.3,1.2C42.8,48.4,43.1,48.5,43.5,48.5z"/>
	<path class="st5" d="M49.5,47.9h0.9c-0.1,0.4-0.3,0.8-0.7,1s-0.8,0.4-1.3,0.4c-0.7,0-1.2-0.2-1.6-0.6c-0.4-0.4-0.6-1-0.6-1.7
		c0-0.7,0.2-1.3,0.6-1.8s0.9-0.7,1.6-0.7c0.6,0,1.1,0.2,1.5,0.6c0.4,0.4,0.6,1,0.6,1.7v0.3h-3.3v0.1c0,0.4,0.1,0.7,0.3,1
		s0.5,0.4,0.9,0.4c0.3,0,0.5-0.1,0.7-0.2S49.5,48.1,49.5,47.9z M49.2,45.6c-0.2-0.2-0.5-0.3-0.8-0.3s-0.6,0.1-0.8,0.3
		c-0.2,0.2-0.3,0.5-0.4,0.9h2.3C49.5,46.2,49.4,45.9,49.2,45.6z"/>
	<path class="st5" d="M52.2,49.3h-0.9v-4.6h1.2L54,48h0l1.5-3.4h1.2v4.6h-0.9V46h0l-1.4,3h-0.7l-1.4-3h0V49.3z"/>
	<path class="st5" d="M61.3,48.7c-0.4,0.4-0.9,0.6-1.6,0.6s-1.2-0.2-1.6-0.6c-0.4-0.4-0.6-1-0.6-1.8c0-0.7,0.2-1.3,0.6-1.8
		c0.4-0.4,0.9-0.6,1.6-0.6s1.2,0.2,1.6,0.6c0.4,0.4,0.6,1,0.6,1.8C61.9,47.7,61.7,48.3,61.3,48.7z M59.7,48.6c0.4,0,0.7-0.1,0.9-0.4
		c0.2-0.3,0.3-0.7,0.3-1.2c0-0.5-0.1-0.9-0.3-1.2s-0.5-0.4-0.9-0.4s-0.7,0.1-0.9,0.4c-0.2,0.3-0.3,0.7-0.3,1.2
		c0,0.5,0.1,0.9,0.3,1.2C59,48.4,59.3,48.6,59.7,48.6z"/>
	<path class="st5" d="M65.7,49.3v-2h-2.1v2h-0.9v-4.6h0.9v1.9h2.1v-1.9h0.9v4.6H65.7z"/>
	<path class="st5" d="M71.2,44.6v0.8h-1.5v3.9h-0.9v-3.9h-1.5v-0.8H71.2z"/>
	<path class="st5" d="M77.2,44.6v0.8h-1.5v3.9h-0.9v-3.9h-1.5v-0.8H77.2z"/>
	<path class="st5" d="M79.1,49.3c-0.5,0-0.8-0.1-1.1-0.4c-0.3-0.3-0.4-0.6-0.4-1c0-0.4,0.1-0.7,0.4-1c0.3-0.2,0.7-0.4,1.3-0.4
		l1.3-0.1v-0.4c0-0.3-0.1-0.5-0.2-0.6c-0.2-0.1-0.4-0.2-0.7-0.2c-0.3,0-0.5,0.1-0.7,0.2c-0.2,0.1-0.3,0.3-0.3,0.5h-0.9
		c0-0.4,0.2-0.8,0.6-1c0.3-0.3,0.8-0.4,1.4-0.4s1,0.1,1.3,0.4c0.3,0.3,0.5,0.6,0.5,1.1v3.2h-0.9v-0.8h0c-0.1,0.3-0.3,0.5-0.6,0.6
		C79.7,49.3,79.4,49.3,79.1,49.3z M79.4,48.6c0.3,0,0.6-0.1,0.8-0.3c0.2-0.2,0.3-0.5,0.3-0.8v-0.4l-1.1,0.1c-0.3,0-0.5,0.1-0.7,0.2
		c-0.2,0.1-0.2,0.3-0.2,0.5c0,0.2,0.1,0.4,0.2,0.5C78.9,48.5,79.1,48.6,79.4,48.6z"/>
	<path class="st5" d="M87.9,48.7c-0.4,0.4-0.9,0.6-1.6,0.6s-1.2-0.2-1.6-0.6c-0.4-0.4-0.6-1-0.6-1.8c0-0.7,0.2-1.3,0.6-1.8
		c0.4-0.4,0.9-0.6,1.6-0.6s1.2,0.2,1.6,0.6c0.4,0.4,0.6,1,0.6,1.8C88.5,47.7,88.3,48.3,87.9,48.7z M86.3,48.6c0.4,0,0.7-0.1,0.9-0.4
		c0.2-0.3,0.3-0.7,0.3-1.2c0-0.5-0.1-0.9-0.3-1.2s-0.5-0.4-0.9-0.4s-0.7,0.1-0.9,0.4c-0.2,0.3-0.3,0.7-0.3,1.2
		c0,0.5,0.1,0.9,0.3,1.2C85.7,48.4,86,48.6,86.3,48.6z"/>
	<path class="st5" d="M91.4,49.3c-0.7,0-1.3-0.2-1.7-0.7c-0.4-0.5-0.6-1.2-0.6-2.1c0-0.9,0.1-1.6,0.3-2.1c0.2-0.5,0.4-0.9,0.8-1.2
		c0.4-0.3,0.8-0.4,1.4-0.4l0.4,0c0.6,0,1-0.1,1.2-0.2v0.8c-0.1,0.1-0.2,0.1-0.4,0.2s-0.5,0.1-0.7,0.1l-0.4,0c-0.3,0-0.6,0.1-0.8,0.1
		c-0.2,0.1-0.4,0.2-0.5,0.4c-0.1,0.2-0.2,0.4-0.3,0.6c-0.1,0.2-0.1,0.5-0.2,0.8h0c0.1-0.3,0.4-0.5,0.6-0.6c0.3-0.1,0.6-0.2,1-0.2
		c0.6,0,1.1,0.2,1.5,0.6c0.4,0.4,0.6,0.9,0.6,1.6c0,0.7-0.2,1.3-0.6,1.7C92.6,49.1,92.1,49.3,91.4,49.3z M91.4,48.5
		c0.4,0,0.7-0.1,0.9-0.4c0.2-0.3,0.3-0.6,0.3-1.1c0-0.5-0.1-0.8-0.3-1.1s-0.5-0.4-0.9-0.4c-0.4,0-0.7,0.1-0.9,0.4
		c-0.2,0.3-0.3,0.6-0.3,1.1c0,0.5,0.1,0.9,0.3,1.1C90.7,48.4,91,48.5,91.4,48.5z"/>
	<path class="st5" d="M98.4,46.1h-0.9c-0.1-0.2-0.2-0.4-0.4-0.6s-0.4-0.2-0.7-0.2c-0.4,0-0.7,0.1-0.9,0.4c-0.2,0.3-0.3,0.7-0.3,1.2
		c0,0.5,0.1,0.9,0.3,1.2c0.2,0.3,0.5,0.4,0.9,0.4c0.3,0,0.5-0.1,0.7-0.2c0.2-0.1,0.3-0.3,0.4-0.6h0.9c-0.1,0.5-0.3,0.8-0.6,1.1
		c-0.4,0.3-0.8,0.4-1.3,0.4c-0.7,0-1.2-0.2-1.6-0.6c-0.4-0.4-0.6-1-0.6-1.8c0-0.7,0.2-1.3,0.6-1.7c0.4-0.4,0.9-0.7,1.6-0.7
		c0.5,0,1,0.1,1.4,0.4C98.1,45.3,98.3,45.7,98.4,46.1z"/>
	<path class="st5" d="M100.5,47.1c0,0.3,0,0.5-0.1,0.7s-0.1,0.4-0.2,0.6c-0.1,0.2-0.2,0.3-0.3,0.5c-0.1,0.1-0.2,0.2-0.4,0.3
		c-0.2,0.1-0.3,0.1-0.5,0.1c-0.1,0-0.2,0-0.3,0v-0.8c0.1,0,0.2,0,0.3,0c0.2,0,0.4-0.1,0.5-0.3s0.2-0.6,0.2-1l0.2-2.5h3.2v4.6h-0.9
		v-3.9h-1.4L100.5,47.1z"/>
	<path class="st5" d="M104.5,51c-0.2,0-0.3,0-0.4,0v-0.8c0,0,0.2,0,0.3,0c0.2,0,0.4-0.1,0.5-0.2c0.1-0.1,0.2-0.3,0.3-0.5
		c0,0,0-0.1,0-0.1l0-0.1l-1.7-4.6h1l1.2,3.8h0l1.2-3.8h1l-1.7,4.9c-0.2,0.6-0.4,0.9-0.7,1.2C105.3,50.9,105,51,104.5,51z"/>
	<path class="st5" d="M111.7,45.4h-2.1v3.9h-0.9v-4.6h3.1V45.4z"/>
	<path class="st5" d="M116,48.7c-0.4,0.4-0.9,0.6-1.6,0.6s-1.2-0.2-1.6-0.6c-0.4-0.4-0.6-1-0.6-1.8c0-0.7,0.2-1.3,0.6-1.8
		c0.4-0.4,0.9-0.6,1.6-0.6s1.2,0.2,1.6,0.6c0.4,0.4,0.6,1,0.6,1.8C116.6,47.7,116.4,48.3,116,48.7z M114.4,48.6
		c0.4,0,0.7-0.1,0.9-0.4c0.2-0.3,0.3-0.7,0.3-1.2c0-0.5-0.1-0.9-0.3-1.2c-0.2-0.3-0.5-0.4-0.9-0.4s-0.7,0.1-0.9,0.4
		c-0.2,0.3-0.3,0.7-0.3,1.2c0,0.5,0.1,0.9,0.3,1.2C113.7,48.4,114,48.6,114.4,48.6z"/>
	<path class="st5" d="M117.4,49.3v-4.6h2.1c0.5,0,0.8,0.1,1.1,0.3c0.3,0.2,0.4,0.5,0.4,0.9c0,0.2-0.1,0.5-0.2,0.6
		c-0.2,0.2-0.3,0.3-0.6,0.3v0c0.3,0,0.5,0.2,0.7,0.4c0.2,0.2,0.3,0.4,0.3,0.7c0,0.4-0.1,0.7-0.4,1c-0.3,0.2-0.7,0.4-1.2,0.4H117.4z
		 M119.3,45.3h-1v1.2h0.9c0.5,0,0.8-0.2,0.8-0.6c0-0.2-0.1-0.3-0.2-0.4C119.7,45.4,119.5,45.3,119.3,45.3z M119.2,47.2h-0.9v1.4h1
		c0.3,0,0.5-0.1,0.6-0.2c0.1-0.1,0.2-0.3,0.2-0.5C120.2,47.4,119.9,47.2,119.2,47.2z"/>
	<path class="st5" d="M122.4,51c-0.2,0-0.3,0-0.4,0v-0.8c0,0,0.2,0,0.3,0c0.2,0,0.4-0.1,0.5-0.2c0.1-0.1,0.2-0.3,0.3-0.5
		c0,0,0-0.1,0-0.1l0-0.1l-1.7-4.6h1l1.2,3.8h0l1.2-3.8h1l-1.7,4.9c-0.2,0.6-0.4,0.9-0.7,1.2C123.2,50.9,122.8,51,122.4,51z"/>
	<path class="st5" d="M126.5,49.3v-4.6h2.1c0.5,0,0.8,0.1,1.1,0.3c0.3,0.2,0.4,0.5,0.4,0.9c0,0.2-0.1,0.5-0.2,0.6
		c-0.2,0.2-0.3,0.3-0.6,0.3v0c0.3,0,0.5,0.2,0.7,0.4c0.2,0.2,0.3,0.4,0.3,0.7c0,0.4-0.1,0.7-0.4,1c-0.3,0.2-0.7,0.4-1.2,0.4H126.5z
		 M128.4,45.3h-1v1.2h0.9c0.5,0,0.8-0.2,0.8-0.6c0-0.2-0.1-0.3-0.2-0.4C128.8,45.4,128.7,45.3,128.4,45.3z M128.4,47.2h-0.9v1.4h1
		c0.3,0,0.5-0.1,0.6-0.2c0.1-0.1,0.2-0.3,0.2-0.5C129.3,47.4,129,47.2,128.4,47.2z"/>
	<path class="st5" d="M132.5,49.3c-0.5,0-0.8-0.1-1.1-0.4c-0.3-0.3-0.4-0.6-0.4-1c0-0.4,0.1-0.7,0.4-1c0.3-0.2,0.7-0.4,1.3-0.4
		l1.3-0.1v-0.4c0-0.3-0.1-0.5-0.2-0.6c-0.2-0.1-0.4-0.2-0.7-0.2c-0.3,0-0.5,0.1-0.7,0.2c-0.2,0.1-0.3,0.3-0.3,0.5h-0.9
		c0-0.4,0.2-0.8,0.6-1c0.3-0.3,0.8-0.4,1.4-0.4c0.6,0,1,0.1,1.3,0.4c0.3,0.3,0.5,0.6,0.5,1.1v3.2H134v-0.8h0
		c-0.1,0.3-0.3,0.5-0.6,0.6C133.1,49.3,132.8,49.3,132.5,49.3z M132.8,48.6c0.3,0,0.6-0.1,0.8-0.3c0.2-0.2,0.3-0.5,0.3-0.8v-0.4
		l-1.1,0.1c-0.3,0-0.5,0.1-0.7,0.2c-0.2,0.1-0.2,0.3-0.2,0.5c0,0.2,0.1,0.4,0.2,0.5C132.3,48.5,132.5,48.6,132.8,48.6z"/>
	<path class="st5" d="M138.9,49.3v-2h-2.1v2h-0.9v-4.6h0.9v1.9h2.1v-1.9h0.9v4.6H138.9z"/>
	<path class="st5" d="M143.9,49.3v-2h-2.1v2h-0.9v-4.6h0.9v1.9h2.1v-1.9h0.9v4.6H143.9z"/>
	<path class="st5" d="M148.5,49.3v-1.6h-0.7l-1.1,1.6h-1.1l1.3-1.7c-0.3-0.1-0.6-0.3-0.8-0.5c-0.2-0.2-0.3-0.5-0.3-0.8
		c0-0.5,0.2-0.9,0.5-1.1c0.3-0.3,0.8-0.4,1.3-0.4h1.8v4.6H148.5z M147.6,46.9h0.8v-1.6h-0.8c-0.3,0-0.5,0.1-0.6,0.2
		c-0.2,0.1-0.2,0.3-0.2,0.6c0,0.2,0.1,0.4,0.2,0.5C147.2,46.9,147.4,46.9,147.6,46.9z"/>
	<path class="st5" d="M155.8,44.6v0.8h-1.5v3.9h-0.9v-3.9h-1.5v-0.8H155.8z"/>
	<path class="st5" d="M159.4,47.9h0.9c-0.1,0.4-0.3,0.8-0.7,1c-0.4,0.3-0.8,0.4-1.3,0.4c-0.7,0-1.2-0.2-1.6-0.6
		c-0.4-0.4-0.6-1-0.6-1.7c0-0.7,0.2-1.3,0.6-1.8c0.4-0.4,0.9-0.7,1.6-0.7c0.6,0,1.1,0.2,1.5,0.6c0.4,0.4,0.6,1,0.6,1.7v0.3h-3.3v0.1
		c0,0.4,0.1,0.7,0.3,1s0.5,0.4,0.9,0.4c0.3,0,0.5-0.1,0.7-0.2C159.2,48.3,159.4,48.1,159.4,47.9z M159.1,45.6
		c-0.2-0.2-0.5-0.3-0.8-0.3s-0.6,0.1-0.8,0.3c-0.2,0.2-0.3,0.5-0.4,0.9h2.3C159.4,46.2,159.3,45.9,159.1,45.6z"/>
	<path class="st5" d="M162.9,47.6L162.9,47.6l-1,1.7h-1l1.5-2.3l-1.5-2.3h1.1l1,1.7h0l1-1.7h1l-1.5,2.3l1.5,2.3h-1L162.9,47.6z"/>
	<path class="st5" d="M168.7,49.3v-2h-2.1v2h-0.9v-4.6h0.9v1.9h2.1v-1.9h0.9v4.6H168.7z"/>
	<path class="st5" d="M171.5,43.8c-0.1,0.1-0.2,0.2-0.4,0.2s-0.3-0.1-0.4-0.2c-0.1-0.1-0.2-0.2-0.2-0.4c0-0.2,0.1-0.3,0.2-0.4
		c0.1-0.1,0.2-0.2,0.4-0.2c0.2,0,0.3,0.1,0.4,0.2c0.1,0.1,0.2,0.2,0.2,0.4C171.7,43.6,171.6,43.7,171.5,43.8z M170.7,49.3v-4.6h0.9
		v4.6H170.7z"/>
	<path class="st5" d="M174.5,46.8l2.1,2.5h-1.2l-1.8-2.1h0v2.1h-0.9v-4.6h0.9v2h0l1.8-2h1.1L174.5,46.8z"/>
	<path class="st5" d="M178.2,49.3h-0.9v-4.6h0.9v3.2h0l2.1-3.2h0.9v4.6h-0.9V46h0L178.2,49.3z"/>
	<path class="st5" d="M188.3,49.3l-0.6-1.7h-2.4l-0.6,1.7h-1l2.3-6.3h1.1l2.3,6.3H188.3z M186.5,44l-0.9,2.8h1.9L186.5,44L186.5,44z
		"/>
	<path class="st5" d="M192.4,44.6c0.6,0,1.1,0.2,1.4,0.6s0.5,1,0.5,1.7s-0.2,1.3-0.5,1.7c-0.4,0.4-0.8,0.6-1.4,0.6
		c-0.3,0-0.6-0.1-0.9-0.2c-0.3-0.2-0.4-0.4-0.6-0.6h0v2.3H190v-6.2h0.9v0.8h0c0.1-0.3,0.3-0.5,0.6-0.6
		C191.8,44.6,192,44.6,192.4,44.6z M192.1,48.5c0.4,0,0.7-0.1,0.9-0.4c0.2-0.3,0.3-0.7,0.3-1.2c0-0.5-0.1-0.9-0.3-1.2
		c-0.2-0.3-0.5-0.4-0.9-0.4c-0.4,0-0.7,0.1-0.9,0.4s-0.3,0.7-0.3,1.2c0,0.5,0.1,0.9,0.3,1.2C191.5,48.4,191.8,48.5,192.1,48.5z"/>
	<path class="st5" d="M197.5,44.6c0.6,0,1.1,0.2,1.4,0.6s0.5,1,0.5,1.7s-0.2,1.3-0.5,1.7c-0.4,0.4-0.8,0.6-1.4,0.6
		c-0.3,0-0.6-0.1-0.9-0.2c-0.3-0.2-0.4-0.4-0.6-0.6h0v2.3h-0.9v-6.2h0.9v0.8h0c0.1-0.3,0.3-0.5,0.6-0.6
		C196.8,44.6,197.1,44.6,197.5,44.6z M197.2,48.5c0.4,0,0.7-0.1,0.9-0.4c0.2-0.3,0.3-0.7,0.3-1.2c0-0.5-0.1-0.9-0.3-1.2
		c-0.2-0.3-0.5-0.4-0.9-0.4c-0.4,0-0.7,0.1-0.9,0.4s-0.3,0.7-0.3,1.2c0,0.5,0.1,0.9,0.3,1.2C196.6,48.4,196.8,48.5,197.2,48.5z"/>
	<path class="st5" d="M200.2,49.3v-6.3h0.9v6.3H200.2z"/>
	<path class="st5" d="M205.2,47.9h0.9c-0.1,0.4-0.3,0.8-0.7,1s-0.8,0.4-1.3,0.4c-0.7,0-1.2-0.2-1.6-0.6c-0.4-0.4-0.6-1-0.6-1.7
		c0-0.7,0.2-1.3,0.6-1.8c0.4-0.4,0.9-0.7,1.6-0.7c0.6,0,1.1,0.2,1.5,0.6c0.4,0.4,0.6,1,0.6,1.7v0.3h-3.3v0.1c0,0.4,0.1,0.7,0.3,1
		c0.2,0.2,0.5,0.4,0.9,0.4c0.3,0,0.5-0.1,0.7-0.2S205.1,48.1,205.2,47.9z M204.8,45.6c-0.2-0.2-0.5-0.3-0.8-0.3
		c-0.3,0-0.6,0.1-0.8,0.3c-0.2,0.2-0.3,0.5-0.4,0.9h2.3C205.2,46.2,205,45.9,204.8,45.6z"/>
</g>
</svg>
