<svg xmlns="http://www.w3.org/2000/svg" xmlns:xlink="http://www.w3.org/1999/xlink" width="140" height="28" viewBox="0 0 140 28">
    <defs>
        <path id="a" d="M9.182 1.756a3.73 3.73 0 0 0-.547 3.397l.047.132.141.005a3.806 3.806 0 0 0 3.106-1.538 3.73 3.73 0 0 0 .548-3.397L12.43.223l-.141-.005h-.04c-1.17 0-2.322.533-3.067 1.538zM5.284 6.12a5.522 5.522 0 0 0-1.96.91 7.07 7.07 0 0 0-1.6 1.609 7.443 7.443 0 0 0-1.042 2.055c-1.86 5.753 2.97 7.077 4.122 11.646.066.262.24.478.497.65.264.178.618.31 1.032.401.323.071.699.125 1.101.16.416.038.86.057 1.309.057l.028.002.032.001a.737.737 0 0 0 .52-.213.722.722 0 0 0 .215-.515v-5.217a2.132 2.132 0 0 0 .799-.502 2.15 2.15 0 0 0 .636-1.52 2.116 2.116 0 0 0-.591-1.47c-.006-.009-.014-.017-.022-.026a2.178 2.178 0 0 0-3.086-.026l-.002.002-.003.003c-.2.199-.36.435-.47.698a2.115 2.115 0 0 0 0 1.64c.11.264.27.5.47.699l.072.07.003-.003a2.191 2.191 0 0 0 .725.434v4.477c-.254-.012-.5-.03-.731-.056a7.019 7.019 0 0 1-.69-.11c-.187-.041-.328-.046-.416-.049-.007 0-.004.031-.002.054.002.019.004.032 0 .018l-.003-.011a8.961 8.961 0 0 0-.893-2.21c-1.696-3.04-4.514-4.754-3.258-8.641a5.98 5.98 0 0 1 .835-1.647 5.622 5.622 0 0 1 1.274-1.283 4.08 4.08 0 0 1 1.385-.66c.447-.11.899-.121 1.332-.013.114.029.255.069.396.109l.007.001v.001c.236.067.476.135.729.187.254.053.517.089.792.089.532 0 1.033-.094 1.518-.185h.002l.009-.002c.216-.04.429-.08.616-.106.46-.063.92-.016 1.362.12.469.145.918.39 1.327.713a5.43 5.43 0 0 1 1.165 1.28c.324.49.58 1.04.747 1.62 1.377 4.795-3.115 6.548-4.146 10.627a.73.73 0 0 0 .534.88.736.736 0 0 0 .89-.528c1.055-4.177 5.803-5.566 4.133-11.377a7.375 7.375 0 0 0-.936-2.026 6.909 6.909 0 0 0-1.475-1.613 5.59 5.59 0 0 0-1.844-.976 4.601 4.601 0 0 0-1.952-.158c-.24.033-.466.075-.693.117l-.006.002c-.412.077-.837.156-1.25.156-.35 0-.74-.11-1.118-.218h-.002c-.143-.04-.285-.081-.449-.122a4.033 4.033 0 0 0-.982-.12c-.332 0-.664.04-.992.115zm3.062 10.052l-.038-.037a.696.696 0 0 1-.153-.758.684.684 0 0 1 .15-.224l.001-.001.002-.002a.684.684 0 0 1 .495-.2.703.703 0 0 1 .496.203l.001.001.013.012.001.001.01.01a.678.678 0 0 1 .18.467.682.682 0 0 1-.205.49.71.71 0 0 1-.766.152.677.677 0 0 1-.187-.114zm-2.532 8.544a.502.502 0 0 0-.182.402l.004.252c.01.641.308 1.053.828 1.204.224.066.38.248.408.478.156 1.24 3.753 1.24 3.909 0a.561.561 0 0 1 .408-.477c.52-.153.818-.565.828-1.205l.004-.252a.503.503 0 0 0-.183-.402.509.509 0 0 0-.428-.12c-1.496.247-3.671.247-5.167 0a.51.51 0 0 0-.429.119z"/>
        <linearGradient id="b" x1="49.646%" x2="49.646%" y1="105.828%" y2="6.755%">
            <stop offset="0%" stop-color="#6DA5FF"/>
            <stop offset="100%" stop-color="#00FEC5"/>
        </linearGradient>
        <path id="d" d="M26.6.05a.493.493 0 0 0-.382.155.567.567 0 0 0-.143.4V15.04c0 .148.052.274.153.377a.51.51 0 0 0 .372.155h6.537c1.644 0 2.93-.421 3.848-1.264.918-.843 1.377-1.951 1.377-3.326 0-.813-.213-1.54-.634-2.173-.42-.635-.94-1.094-1.552-1.376.495-.236.929-.624 1.3-1.164.372-.54.558-1.194.558-1.962 0-1.316-.424-2.356-1.268-3.116C35.923.432 34.646.05 32.94.05H26.6zm2.558 2.373h3.389c.754 0 1.334.17 1.727.51.393.34.59.82.59 1.441 0 .621-.2 1.116-.601 1.486-.4.37-.973.555-1.716.555h-3.39V2.423zm0 6.298h3.608c.74 0 1.33.212 1.76.632.428.42.644.957.644 1.608 0 .65-.211 1.186-.634 1.608-.422.42-1.013.631-1.77.631h-3.608V8.72zM16.278.05c-.38 0-.65.181-.788.554l-5.247 14.304-.043.2c-.03.13.043.243.13.332.088.089.2.133.329.133h1.945c.304 0 .529-.14.634-.421l1.006-2.684h6.471l1.006 2.684c.107.285.33.421.634.421H24.3a.46.46 0 0 0 .317-.133c.093-.087.17-.205.142-.332l-.044-.2L19.47.604c-.136-.37-.408-.554-.787-.554h-2.405zm1.202 3.016l2.47 6.83h-4.941l2.47-6.83zM.813.05a.507.507 0 0 0-.524.532v14.46c0 .147.05.273.152.376a.508.508 0 0 0 .372.155h7.84a.525.525 0 0 0 .546-.532v-1.597a.529.529 0 0 0-.546-.532h-5.26V.582A.531.531 0 0 0 3.25.194.512.512 0 0 0 2.868.05H.813z"/>
        <linearGradient id="e" x1="50%" x2="50%" y1="105.83%" y2="6.755%">
            <stop offset="0%" stop-color="#6DA5FF"/>
            <stop offset="100%" stop-color="#00FEC5"/>
        </linearGradient>
    </defs>
    <g fill="none" fill-rule="evenodd">
        <g>
            <mask id="c" fill="#fff">
                <use xlink:href="#a"/>
            </mask>
            <path fill="url(#b)" d="M9.182 1.756a3.73 3.73 0 0 0-.547 3.397l.047.132.141.005a3.806 3.806 0 0 0 3.106-1.538 3.73 3.73 0 0 0 .548-3.397L12.43.223l-.141-.005h-.04c-1.17 0-2.322.533-3.067 1.538zM5.284 6.12a5.522 5.522 0 0 0-1.96.91 7.07 7.07 0 0 0-1.6 1.609 7.443 7.443 0 0 0-1.042 2.055c-1.86 5.753 2.97 7.077 4.122 11.646.066.262.24.478.497.65.264.178.618.31 1.032.401.323.071.699.125 1.101.16.416.038.86.057 1.309.057l.028.002.032.001a.737.737 0 0 0 .52-.213.722.722 0 0 0 .215-.515v-5.217a2.132 2.132 0 0 0 .799-.502 2.15 2.15 0 0 0 .636-1.52 2.116 2.116 0 0 0-.591-1.47c-.006-.009-.014-.017-.022-.026a2.178 2.178 0 0 0-3.086-.026l-.002.002-.003.003c-.2.199-.36.435-.47.698a2.115 2.115 0 0 0 0 1.64c.11.264.27.5.47.699l.072.07.003-.003a2.191 2.191 0 0 0 .725.434v4.477c-.254-.012-.5-.03-.731-.056a7.019 7.019 0 0 1-.69-.11c-.187-.041-.328-.046-.416-.049-.007 0-.004.031-.002.054.002.019.004.032 0 .018l-.003-.011a8.961 8.961 0 0 0-.893-2.21c-1.696-3.04-4.514-4.754-3.258-8.641a5.98 5.98 0 0 1 .835-1.647 5.622 5.622 0 0 1 1.274-1.283 4.08 4.08 0 0 1 1.385-.66c.447-.11.899-.121 1.332-.013.114.029.255.069.396.109l.007.001v.001c.236.067.476.135.729.187.254.053.517.089.792.089.532 0 1.033-.094 1.518-.185h.002l.009-.002c.216-.04.429-.08.616-.106.46-.063.92-.016 1.362.12.469.145.918.39 1.327.713a5.43 5.43 0 0 1 1.165 1.28c.324.49.58 1.04.747 1.62 1.377 4.795-3.115 6.548-4.146 10.627a.73.73 0 0 0 .534.88.736.736 0 0 0 .89-.528c1.055-4.177 5.803-5.566 4.133-11.377a7.375 7.375 0 0 0-.936-2.026 6.909 6.909 0 0 0-1.475-1.613 5.59 5.59 0 0 0-1.844-.976 4.601 4.601 0 0 0-1.952-.158c-.24.033-.466.075-.693.117l-.006.002c-.412.077-.837.156-1.25.156-.35 0-.74-.11-1.118-.218h-.002c-.143-.04-.285-.081-.449-.122a4.033 4.033 0 0 0-.982-.12c-.332 0-.664.04-.992.115zm3.062 10.052l-.038-.037a.696.696 0 0 1-.153-.758.684.684 0 0 1 .15-.224l.001-.001.002-.002a.684.684 0 0 1 .495-.2.703.703 0 0 1 .496.203l.001.001.013.012.001.001.01.01a.678.678 0 0 1 .18.467.682.682 0 0 1-.205.49.71.71 0 0 1-.766.152.677.677 0 0 1-.187-.114zm-2.532 8.544a.502.502 0 0 0-.182.402l.004.252c.01.641.308 1.053.828 1.204.224.066.38.248.408.478.156 1.24 3.753 1.24 3.909 0a.561.561 0 0 1 .408-.477c.52-.153.818-.565.828-1.205l.004-.252a.503.503 0 0 0-.183-.402.509.509 0 0 0-.428-.12c-1.496.247-3.671.247-5.167 0a.51.51 0 0 0-.429.119z" mask="url(#c)"/>
        </g>
        <path fill="#32394F" d="M81.755 13.347l-.092-4.013a.495.495 0 0 1 .14-.365.472.472 0 0 1 .353-.152h2.929c.432 0 .649.395.384.69h.024L82.647 13.6a.479.479 0 0 1-.532.193.48.48 0 0 1-.36-.446zM24.663 24.333a.494.494 0 0 1-.368-.155.52.52 0 0 1-.15-.377V9.362c0-.162.046-.295.14-.399a.484.484 0 0 1 .378-.155h5.272c4.249 0 6.417 2.011 6.503 6.032.03.858.044 1.435.044 1.73 0 .281-.015.85-.044 1.708-.057 2.07-.6 3.597-1.63 4.58-1.03.984-2.619 1.475-4.765 1.475h-5.38zm5.272-2.572c1.195 0 2.06-.274 2.593-.821.533-.547.813-1.457.842-2.728.029-.887.044-1.442.044-1.664 0-.236-.015-.783-.044-1.64-.029-1.213-.324-2.104-.885-2.673-.562-.57-1.448-.854-2.658-.854h-2.636v10.38h2.744zm9.917 2.572a.493.493 0 0 1-.367-.155.52.52 0 0 1-.151-.377V9.362a.57.57 0 0 1 .14-.399.483.483 0 0 1 .378-.155h9.529c.158 0 .288.052.388.155a.547.547 0 0 1 .151.4v1.485a.51.51 0 0 1-.15.388.54.54 0 0 1-.39.145h-7.086v3.881h6.61a.52.52 0 0 1 .39.155.55.55 0 0 1 .152.4v1.397c0 .162-.051.292-.152.388a.542.542 0 0 1-.39.144h-6.61v4.015h7.26a.54.54 0 0 1 .388.144.51.51 0 0 1 .151.388V23.8a.51.51 0 0 1-.15.388.54.54 0 0 1-.39.144h-9.7zm13.46 0a.493.493 0 0 1-.366-.155.52.52 0 0 1-.152-.377V9.362c0-.162.047-.295.14-.399a.485.485 0 0 1 .379-.155h1.685c.274 0 .483.125.627.377l6.18 9.847v-9.67a.57.57 0 0 1 .14-.399.484.484 0 0 1 .378-.155h1.858c.158 0 .288.052.389.155.1.104.151.237.151.4v14.416c0 .162-.05.296-.151.399a.493.493 0 0 1-.368.155h-1.707a.701.701 0 0 1-.648-.377l-6.157-9.625v9.47a.542.542 0 0 1-.14.377.485.485 0 0 1-.38.155h-1.857zm19.252 0a.493.493 0 0 1-.367-.155.52.52 0 0 1-.152-.377v-4.99l-5.12-9.293a1.255 1.255 0 0 1-.065-.244c0-.134.046-.244.14-.333a.444.444 0 0 1 .314-.133h1.945c.273 0 .496.14.669.421l3.63 6.432 3.651-6.432c.058-.103.14-.2.25-.288a.605.605 0 0 1 .398-.133h1.945c.13 0 .238.044.324.133.086.088.13.2.13.333a.498.498 0 0 1-.065.244l-5.099 9.293v4.99c0 .162-.05.292-.151.388a.54.54 0 0 1-.39.144h-1.987zm18.835.222c-1.297 0-2.406-.2-3.328-.599-.921-.4-1.62-.924-2.095-1.575-.476-.65-.733-1.36-.757-2.129a.456.456 0 0 1 .13-.321.42.42 0 0 1 .324-.144h1.966c.159 0 .289.037.389.11.1.073.195.178.281.311.144.503.473.925.983 1.264.51.34 1.214.51 2.107.51 1.008 0 1.769-.174 2.28-.52.51-.348.766-.825.766-1.431 0-.4-.13-.733-.389-.999-.258-.265-.651-.499-1.177-.698-.526-.2-1.304-.457-2.345-.721-1.694-.43-2.946-.962-3.737-1.641-.792-.68-1.189-1.656-1.189-2.928 0-.857.232-1.623.692-2.295.46-.672 1.12-1.203 1.977-1.586.856-.384 1.854-.577 2.992-.577 1.196 0 2.229.214 3.1.643.872.43 1.535.966 1.988 1.608.453.643.701 1.283.724 1.92a.455.455 0 0 1-.13.32.42.42 0 0 1-.323.144h-2.053c-.315 0-.533-.132-.648-.399-.073-.473-.354-.869-.843-1.186-.49-.317-1.094-.477-1.815-.477-.792 0-1.415.156-1.87.466-.452.31-.68.761-.68 1.352 0 .4.117.734.346.999.23.265.592.5 1.08.698.49.199 1.2.445 2.14.677 1.276.314 2.3.628 3.057.998.756.37 1.314.835 1.674 1.397.36.562.54 1.28.54 2.151 0 .962-.255 1.793-.767 2.496-.511.702-1.232 1.239-2.16 1.607-.928.37-2.006.555-3.23.555z"/>
        <g transform="translate(101.437 8.905)">
            <mask id="f" fill="#fff">
                <use xlink:href="#d"/>
            </mask>
            <path fill="url(#e)" d="M26.6.05a.493.493 0 0 0-.382.155.567.567 0 0 0-.143.4V15.04c0 .148.052.274.153.377a.51.51 0 0 0 .372.155h6.537c1.644 0 2.93-.421 3.848-1.264.918-.843 1.377-1.951 1.377-3.326 0-.813-.213-1.54-.634-2.173-.42-.635-.94-1.094-1.552-1.376.495-.236.929-.624 1.3-1.164.372-.54.558-1.194.558-1.962 0-1.316-.424-2.356-1.268-3.116C35.923.432 34.646.05 32.94.05H26.6zm2.558 2.373h3.389c.754 0 1.334.17 1.727.51.393.34.59.82.59 1.441 0 .621-.2 1.116-.601 1.486-.4.37-.973.555-1.716.555h-3.39V2.423zm0 6.298h3.608c.74 0 1.33.212 1.76.632.428.42.644.957.644 1.608 0 .65-.211 1.186-.634 1.608-.422.42-1.013.631-1.77.631h-3.608V8.72zM16.278.05c-.38 0-.65.181-.788.554l-5.247 14.304-.043.2c-.03.13.043.243.13.332.088.089.2.133.329.133h1.945c.304 0 .529-.14.634-.421l1.006-2.684h6.471l1.006 2.684c.107.285.33.421.634.421H24.3a.46.46 0 0 0 .317-.133c.093-.087.17-.205.142-.332l-.044-.2L19.47.604c-.136-.37-.408-.554-.787-.554h-2.405zm1.202 3.016l2.47 6.83h-4.941l2.47-6.83zM.813.05a.507.507 0 0 0-.524.532v14.46c0 .147.05.273.152.376a.508.508 0 0 0 .372.155h7.84a.525.525 0 0 0 .546-.532v-1.597a.529.529 0 0 0-.546-.532h-5.26V.582A.531.531 0 0 0 3.25.194.512.512 0 0 0 2.868.05H.813z" mask="url(#f)"/>
        </g>
    </g>
</svg>
